<mxfile host="app.diagrams.net" modified="2022-03-12T19:55:51.954Z" agent="5.0 (Windows NT 10.0; Win64; x64) AppleWebKit/537.36 (KHTML, like Gecko) Chrome/98.0.4758.102 Safari/537.36 Edg/98.0.1108.62" etag="bXWKS0piVXdlDOS0_xlO" version="17.1.2" type="github">
  <diagram id="OQ2WCIPsCmx7WIYO7weC" name="第 1 页">
    <mxGraphModel dx="1038" dy="585" grid="1" gridSize="10" guides="1" tooltips="1" connect="1" arrows="1" fold="1" page="1" pageScale="1" pageWidth="827" pageHeight="1169" math="0" shadow="0">
      <root>
        <mxCell id="0" />
        <mxCell id="1" parent="0" />
        <mxCell id="hJdWJ7WGVFoS9K5IqcU4-3" value="" style="rounded=0;whiteSpace=wrap;html=1;" parent="1" vertex="1">
          <mxGeometry x="220" y="50" width="130" height="450" as="geometry" />
        </mxCell>
        <mxCell id="hJdWJ7WGVFoS9K5IqcU4-4" value="" style="rounded=0;whiteSpace=wrap;html=1;" parent="1" vertex="1">
          <mxGeometry x="560" y="50" width="130" height="450" as="geometry" />
        </mxCell>
        <mxCell id="hJdWJ7WGVFoS9K5IqcU4-5" value="Established" style="rounded=0;whiteSpace=wrap;html=1;fillColor=#dae8fc;strokeColor=#6c8ebf;" parent="1" vertex="1">
          <mxGeometry x="220" y="50" width="130" height="60" as="geometry" />
        </mxCell>
        <mxCell id="hJdWJ7WGVFoS9K5IqcU4-6" value="&lt;span&gt;Established&lt;/span&gt;" style="rounded=0;whiteSpace=wrap;html=1;fillColor=#dae8fc;strokeColor=#6c8ebf;" parent="1" vertex="1">
          <mxGeometry x="560" y="50" width="130" height="110" as="geometry" />
        </mxCell>
        <mxCell id="hJdWJ7WGVFoS9K5IqcU4-7" value="" style="shape=flexArrow;endArrow=classic;startArrow=classic;html=1;rounded=0;" parent="1" edge="1">
          <mxGeometry width="100" height="100" relative="1" as="geometry">
            <mxPoint x="380" y="59.17" as="sourcePoint" />
            <mxPoint x="520" y="59.17" as="targetPoint" />
          </mxGeometry>
        </mxCell>
        <mxCell id="hJdWJ7WGVFoS9K5IqcU4-8" value="传输数据" style="text;html=1;strokeColor=none;fillColor=none;align=center;verticalAlign=middle;whiteSpace=wrap;rounded=0;" parent="1" vertex="1">
          <mxGeometry x="420" y="30" width="60" height="20" as="geometry" />
        </mxCell>
        <mxCell id="hJdWJ7WGVFoS9K5IqcU4-13" style="rounded=0;orthogonalLoop=1;jettySize=auto;html=1;exitX=1;exitY=0;exitDx=0;exitDy=0;entryX=0;entryY=0;entryDx=0;entryDy=0;" parent="1" source="hJdWJ7WGVFoS9K5IqcU4-9" target="hJdWJ7WGVFoS9K5IqcU4-11" edge="1">
          <mxGeometry relative="1" as="geometry" />
        </mxCell>
        <mxCell id="hJdWJ7WGVFoS9K5IqcU4-9" value="Fin_Wait1" style="rounded=0;whiteSpace=wrap;html=1;fillColor=#d5e8d4;strokeColor=#82b366;" parent="1" vertex="1">
          <mxGeometry x="220" y="110" width="130" height="100" as="geometry" />
        </mxCell>
        <mxCell id="hJdWJ7WGVFoS9K5IqcU4-10" value="Fin_Wait2" style="rounded=0;whiteSpace=wrap;html=1;fillColor=#f8cecc;strokeColor=#b85450;" parent="1" vertex="1">
          <mxGeometry x="220" y="210" width="130" height="100" as="geometry" />
        </mxCell>
        <mxCell id="hJdWJ7WGVFoS9K5IqcU4-16" style="edgeStyle=none;rounded=0;orthogonalLoop=1;jettySize=auto;html=1;exitX=0;exitY=0;exitDx=0;exitDy=0;entryX=1;entryY=1;entryDx=0;entryDy=0;fontSize=14;" parent="1" source="hJdWJ7WGVFoS9K5IqcU4-11" target="hJdWJ7WGVFoS9K5IqcU4-9" edge="1">
          <mxGeometry relative="1" as="geometry" />
        </mxCell>
        <mxCell id="hJdWJ7WGVFoS9K5IqcU4-19" style="edgeStyle=none;rounded=0;orthogonalLoop=1;jettySize=auto;html=1;exitX=0;exitY=1;exitDx=0;exitDy=0;entryX=1;entryY=1;entryDx=0;entryDy=0;fontSize=14;" parent="1" source="hJdWJ7WGVFoS9K5IqcU4-11" target="hJdWJ7WGVFoS9K5IqcU4-10" edge="1">
          <mxGeometry relative="1" as="geometry" />
        </mxCell>
        <mxCell id="hJdWJ7WGVFoS9K5IqcU4-11" value="Close_Wait" style="rounded=0;whiteSpace=wrap;html=1;fillColor=#d5e8d4;strokeColor=#82b366;" parent="1" vertex="1">
          <mxGeometry x="560" y="140" width="130" height="110" as="geometry" />
        </mxCell>
        <mxCell id="hJdWJ7WGVFoS9K5IqcU4-14" value="&lt;font style=&quot;font-size: 14px&quot;&gt;FIN=1&amp;nbsp; seq=p&lt;/font&gt;" style="text;html=1;strokeColor=none;fillColor=none;align=center;verticalAlign=middle;whiteSpace=wrap;rounded=0;rotation=10;" parent="1" vertex="1">
          <mxGeometry x="370" y="90" width="120" height="40" as="geometry" />
        </mxCell>
        <mxCell id="hJdWJ7WGVFoS9K5IqcU4-17" value="&lt;font style=&quot;font-size: 14px&quot;&gt;ACK=1 seq=v ack=p+1&lt;/font&gt;" style="text;html=1;strokeColor=none;fillColor=none;align=center;verticalAlign=middle;whiteSpace=wrap;rounded=0;rotation=-20;" parent="1" vertex="1">
          <mxGeometry x="360" y="150" width="160" height="40" as="geometry" />
        </mxCell>
        <mxCell id="hJdWJ7WGVFoS9K5IqcU4-20" value="&lt;font style=&quot;font-size: 14px&quot;&gt;FIN=1&amp;nbsp; seq=q&lt;/font&gt;" style="text;html=1;strokeColor=none;fillColor=none;align=center;verticalAlign=middle;whiteSpace=wrap;rounded=0;rotation=-20;" parent="1" vertex="1">
          <mxGeometry x="370" y="250" width="160" height="40" as="geometry" />
        </mxCell>
        <mxCell id="hJdWJ7WGVFoS9K5IqcU4-23" style="edgeStyle=none;rounded=0;orthogonalLoop=1;jettySize=auto;html=1;exitX=1;exitY=0;exitDx=0;exitDy=0;entryX=0;entryY=1;entryDx=0;entryDy=0;fontSize=14;" parent="1" source="hJdWJ7WGVFoS9K5IqcU4-21" target="hJdWJ7WGVFoS9K5IqcU4-22" edge="1">
          <mxGeometry relative="1" as="geometry" />
        </mxCell>
        <mxCell id="hJdWJ7WGVFoS9K5IqcU4-21" value="Time_Wait" style="rounded=0;whiteSpace=wrap;html=1;fillColor=#e1d5e7;strokeColor=#9673a6;" parent="1" vertex="1">
          <mxGeometry x="220" y="310" width="130" height="140" as="geometry" />
        </mxCell>
        <mxCell id="hJdWJ7WGVFoS9K5IqcU4-22" value="Last_ACK" style="rounded=0;whiteSpace=wrap;html=1;fillColor=#e1d5e7;strokeColor=#9673a6;" parent="1" vertex="1">
          <mxGeometry x="560" y="250" width="130" height="110" as="geometry" />
        </mxCell>
        <mxCell id="hJdWJ7WGVFoS9K5IqcU4-24" value="&lt;font style=&quot;font-size: 14px&quot;&gt;ACK=1&amp;nbsp; ack=q+1&lt;/font&gt;" style="text;html=1;strokeColor=none;fillColor=none;align=center;verticalAlign=middle;whiteSpace=wrap;rounded=0;rotation=10;" parent="1" vertex="1">
          <mxGeometry x="380" y="320" width="120" height="40" as="geometry" />
        </mxCell>
        <mxCell id="hJdWJ7WGVFoS9K5IqcU4-25" value="" style="shape=flexArrow;endArrow=classic;html=1;rounded=0;fontSize=14;" parent="1" edge="1">
          <mxGeometry width="50" height="50" relative="1" as="geometry">
            <mxPoint x="500" y="210" as="sourcePoint" />
            <mxPoint x="390" y="250" as="targetPoint" />
          </mxGeometry>
        </mxCell>
        <mxCell id="hJdWJ7WGVFoS9K5IqcU4-26" value="传输数据" style="text;html=1;strokeColor=none;fillColor=none;align=center;verticalAlign=middle;whiteSpace=wrap;rounded=0;rotation=-25;" parent="1" vertex="1">
          <mxGeometry x="420" y="200" width="60" height="20" as="geometry" />
        </mxCell>
        <mxCell id="hJdWJ7WGVFoS9K5IqcU4-27" value="Closed" style="rounded=0;whiteSpace=wrap;html=1;fillColor=#ffe6cc;strokeColor=#d79b00;" parent="1" vertex="1">
          <mxGeometry x="220" y="450" width="130" height="50" as="geometry" />
        </mxCell>
        <mxCell id="hJdWJ7WGVFoS9K5IqcU4-29" value="Closed" style="rounded=0;whiteSpace=wrap;html=1;fillColor=#ffe6cc;strokeColor=#d79b00;" parent="1" vertex="1">
          <mxGeometry x="560" y="360" width="130" height="140" as="geometry" />
        </mxCell>
        <mxCell id="hJdWJ7WGVFoS9K5IqcU4-30" value="等待2MSL" style="ellipse;shape=cloud;whiteSpace=wrap;html=1;fontSize=14;" parent="1" vertex="1">
          <mxGeometry x="90" y="340" width="120" height="80" as="geometry" />
        </mxCell>
        <mxCell id="hJdWJ7WGVFoS9K5IqcU4-31" value="可以接受服务端&lt;br&gt;发来的数据" style="ellipse;shape=cloud;whiteSpace=wrap;html=1;fontSize=14;" parent="1" vertex="1">
          <mxGeometry x="90" y="220" width="120" height="80" as="geometry" />
        </mxCell>
        <mxCell id="hJdWJ7WGVFoS9K5IqcU4-32" value="可以继续发送&lt;br&gt;数据" style="ellipse;shape=cloud;whiteSpace=wrap;html=1;fontSize=14;" parent="1" vertex="1">
          <mxGeometry x="690" y="155" width="120" height="80" as="geometry" />
        </mxCell>
      </root>
    </mxGraphModel>
  </diagram>
</mxfile>
